<?xml version="1.0" standalone="no"?>
<!DOCTYPE svg PUBLIC "-//W3C//DTD SVG 1.1//EN" "http://www.w3.org/Graphics/SVG/1.1/DTD/svg11.dtd" >
<svg xmlns="http://www.w3.org/2000/svg">
<metadata></metadata>
<defs>
<font id="unbpro-boldregular" horiz-adv-x="1257" >
<font-face units-per-em="2048" ascent="1638" descent="-410" />
<missing-glyph horiz-adv-x="577" />
<glyph horiz-adv-x="2048" />
<glyph horiz-adv-x="2048" />
<glyph unicode="&#xd;" horiz-adv-x="2048" />
<glyph unicode=" "  horiz-adv-x="577" />
<glyph unicode="&#x09;" horiz-adv-x="577" />
<glyph unicode="&#xa0;" horiz-adv-x="577" />
<glyph unicode="!" horiz-adv-x="669" d="M164 1292v314h342v-310l-37 -856h-268zM174 0v334h320v-334h-320z" />
<glyph unicode="&#x22;" horiz-adv-x="995" d="M123 1538h301l-29 -541h-243zM571 1538h301l-28 -541h-244z" />
<glyph unicode="#" horiz-adv-x="1155" d="M8 352v215h199l57 271h-205v213h250l76 358h217l-78 -358h250l78 358h219l-78 -358h148v-213h-193l-57 -271h199v-215h-246l-74 -352h-219l74 352h-250l-74 -352h-215l74 352h-152zM422 567h250l57 271h-250z" />
<glyph unicode="$" horiz-adv-x="1155" d="M104 446l291 33q7 -63 51 -106t132 -43q157 0 157 108q0 55 -47.5 84t-183.5 60q-203 46 -289 130t-86 222q0 132 91.5 217.5t260.5 105.5v265h195v-267q150 -21 242 -102t110 -199l-297 -20q-3 63 -49 97t-117 34q-69 0 -103 -25t-34 -65q0 -35 14.5 -56.5t67.5 -44.5 t158 -47q74 -17 127.5 -34.5t105.5 -45t84.5 -62.5t52 -86t19.5 -116q0 -153 -96.5 -244t-284.5 -110v-295h-195v295q-93 11 -163.5 40.5t-114 73.5t-67.5 94t-32 109z" />
<glyph unicode="%" horiz-adv-x="1845" d="M43 993q0 105 19 184.5t51.5 130.5t80.5 83t102 44.5t120 12.5q80 0 143 -21.5t115.5 -71t81 -141t28.5 -221.5q0 -123 -28.5 -213.5t-81 -141.5t-117.5 -75t-145 -24t-144.5 23.5t-116.5 74.5t-80 141.5t-28 214.5zM283 993q0 -159 31 -222.5t100 -63.5q70 0 100.5 62.5 t30.5 223.5t-30.5 223t-98.5 62q-72 0 -102.5 -61.5t-30.5 -223.5zM342 0l934 1432h227l-936 -1432h-225zM1059 438q0 104 19 183.5t52 130.5t81.5 83t102.5 45t120 13q63 0 115 -13t99.5 -45t79.5 -83t51 -130.5t19 -183.5q0 -124 -28.5 -214.5t-80 -142t-116 -75.5 t-143.5 -24q-82 0 -147 24t-116.5 76t-79.5 142t-28 214zM1298 438q0 -161 30 -221.5t104 -60.5q67 0 99 62.5t32 219.5q0 162 -30.5 224.5t-98.5 62.5q-75 0 -105.5 -61.5t-30.5 -225.5z" />
<glyph unicode="&#x26;" horiz-adv-x="1542" d="M86 389q0 140 78.5 240t261.5 190q-72 156 -72 283q0 70 20.5 127.5t64 104t119 72.5t177.5 26q166 0 265.5 -80t99.5 -222q0 -124 -94 -216t-293 -181q116 -196 239 -327q101 141 158 362l211 -72q-27 -105 -81.5 -224t-119.5 -208q102 -65 187 -65q62 0 118 16v-205 q-58 -22 -133 -22q-174 0 -340 110q-164 -118 -374 -118q-125 0 -220.5 31t-154 86.5t-88 129t-29.5 162.5zM344 393q0 -98 63.5 -159.5t180.5 -61.5q113 0 211 68q-157 169 -285 405q-170 -94 -170 -252zM573 1100q0 -81 50 -195q141 62 196 109t55 114q0 59 -38.5 95.5 t-102.5 36.5q-77 0 -118.5 -42.5t-41.5 -117.5z" />
<glyph unicode="'" horiz-adv-x="546" d="M123 1538h301l-29 -541h-243z" />
<glyph unicode="(" horiz-adv-x="768" d="M123 569q0 557 313 1037h309q-156 -249 -229.5 -492.5t-73.5 -538.5q0 -317 68 -550t238 -500h-320q-159 229 -232 475.5t-73 568.5z" />
<glyph unicode=")" horiz-adv-x="768" d="M20 -475q170 267 238 500t68 550q0 295 -73.5 538.5t-229.5 492.5h309q313 -480 313 -1037q0 -322 -73 -568.5t-232 -475.5h-320z" />
<glyph unicode="*" horiz-adv-x="808" d="M-2 1221l74 217l211 -92l26 -13l-2 33l-20 240h241l-18 -238l-2 -35l39 19l192 86l76 -217l-211 -52l-33 -8l31 -33l158 -172l-205 -137l-129 221l-18 33l-21 -35l-129 -219l-209 139l172 181l23 22l-31 8z" />
<glyph unicode="+" horiz-adv-x="1210" d="M80 567v248h399v410h250v-410h401v-248h-401v-407h-250v407h-399z" />
<glyph unicode="," horiz-adv-x="600" d="M111 -336q145 177 145 336h-131v334h356v-264q0 -227 -137 -408h-233v2z" />
<glyph unicode="-" horiz-adv-x="739" d="M102 401v271h535v-271h-535z" />
<glyph unicode="." horiz-adv-x="593" d="M137 0v334h320v-334h-320z" />
<glyph unicode="/" horiz-adv-x="800" d="M82 -475l309 2081h287l-309 -2081h-287z" />
<glyph unicode="0" horiz-adv-x="1269" d="M82 715q0 167 31 296.5t82.5 211t124.5 134.5t151.5 74t169.5 21q90 0 167 -21t149.5 -74t123 -134.5t81 -211t30.5 -296.5q0 -152 -27 -275t-76 -208t-119 -142t-153.5 -83.5t-181.5 -26.5q-114 0 -211.5 43t-175 129t-122 230.5t-44.5 332.5zM406 715q0 -242 61.5 -366 t169.5 -124q227 0 227 490q0 177 -29 289t-78.5 158t-121.5 46q-115 0 -172 -114t-57 -379z" />
<glyph unicode="1" horiz-adv-x="929" d="M106 989v240l287 203h301v-1432h-317v1171z" />
<glyph unicode="2" horiz-adv-x="1226" d="M98 0v217q37 81 95.5 158t120 136.5t128 116.5t125 107t105.5 98t74.5 99t27.5 102q0 84 -46.5 127t-121.5 43q-86 0 -130.5 -43t-59.5 -143l-305 16q8 91 38.5 164.5t88 131.5t150.5 90t216 32q233 0 359.5 -106.5t126.5 -298.5q0 -103 -52.5 -201t-133.5 -177 t-164.5 -147.5t-160 -139.5t-106.5 -126h639v-256h-1014z" />
<glyph unicode="3" horiz-adv-x="1263" d="M113 395l321 27q9 -90 61 -141.5t148 -51.5q195 0 195 189q0 182 -252 182h-99v252h93q227 0 227 178q0 83 -44 128.5t-126 45.5t-130 -45.5t-54 -128.5l-316 23q24 196 161.5 297.5t342.5 101.5q124 0 218 -30t150.5 -83.5t84.5 -121t28 -148.5q0 -129 -75 -215.5 t-230 -116.5v-4q171 -21 256.5 -112.5t85.5 -223.5q0 -198 -130 -309t-382 -111q-110 0 -198.5 24t-146.5 63t-99 94.5t-61.5 113t-28.5 123.5z" />
<glyph unicode="4" horiz-adv-x="1226" d="M68 281v235l548 916h355v-920h188v-231h-188v-281h-301v281h-602zM319 512h351v631l-29 -56l-301 -538z" />
<glyph unicode="5" horiz-adv-x="1277" d="M115 369l313 22q35 -164 201 -164q97 0 154 63.5t57 180.5q0 109 -55 171.5t-150 62.5q-111 0 -172 -89h-295l51 816h858v-228h-602l-22 -340q94 94 258 94q207 0 328.5 -125.5t121.5 -353.5q0 -109 -32.5 -199t-97 -157.5t-168.5 -105t-238 -37.5q-119 0 -212 29.5 t-153.5 83t-96 122.5t-48.5 154z" />
<glyph unicode="6" horiz-adv-x="1255" d="M123 682q0 382 136.5 576t399.5 194q183 0 291.5 -80.5t151.5 -259.5l-295 -39q-33 133 -156 133q-213 0 -221 -428q43 68 125 105t174 37q188 0 300 -120.5t112 -332.5q0 -217 -136 -352t-368 -135q-247 0 -380.5 177.5t-133.5 524.5zM451 469q0 -113 51.5 -179.5 t140.5 -66.5q86 0 134 62.5t48 173.5q0 109 -48 170t-140 61q-79 0 -132.5 -54t-53.5 -167z" />
<glyph unicode="7" horiz-adv-x="1114" d="M49 1174v258h983v-250q-93 -139 -151 -232t-124 -218.5t-102.5 -231t-61 -235.5t-24.5 -265h-327q0 132 28 262.5t68.5 236t113.5 233t133.5 217.5t157.5 225h-694z" />
<glyph unicode="8" horiz-adv-x="1294" d="M127 403q0 144 86.5 236t216.5 113q-121 20 -195.5 112t-74.5 205q0 181 125 282t360 101q244 0 364.5 -102.5t120.5 -282.5q0 -120 -73.5 -205.5t-190.5 -109.5q126 -16 212.5 -108.5t86.5 -237.5q0 -196 -129 -311t-387 -115q-260 0 -391 115.5t-131 307.5zM451 424 q0 -225 200 -225q191 0 191 229q0 95 -47 154t-154 59q-97 0 -143.5 -61t-46.5 -156zM481 1053q0 -195 166 -195q162 0 162 195q0 84 -40 133t-124 49q-164 0 -164 -182z" />
<glyph unicode="9" horiz-adv-x="1216" d="M96 975q0 228 133.5 352.5t372.5 124.5q255 0 384.5 -174t129.5 -541q0 -377 -138 -567t-400 -190q-195 0 -304 82t-155 266l295 39q37 -142 168 -142q219 0 225 426q-91 -153 -305 -153q-186 0 -296 127.5t-110 349.5zM414 971q0 -107 48 -174.5t134 -67.5q80 0 135 61 t55 181q0 110 -50.5 173.5t-141.5 63.5q-85 0 -132.5 -63.5t-47.5 -173.5z" />
<glyph unicode=":" horiz-adv-x="692" d="M160 0v334h319v-334h-319zM162 764v334h319v-334h-319z" />
<glyph unicode=";" horiz-adv-x="692" d="M111 -336q145 177 145 336h-131v334h356v-264q0 -227 -137 -408h-233v2zM162 764v334h319v-334h-319z" />
<glyph unicode="&#x3c;" horiz-adv-x="1210" d="M80 510v358l1050 389v-251l-835 -320l835 -315v-252z" />
<glyph unicode="=" horiz-adv-x="1210" d="M80 279v247h1050v-247h-1050zM80 850v248h1050v-248h-1050z" />
<glyph unicode="&#x3e;" horiz-adv-x="1210" d="M80 119v252l838 315l-838 320v251l1050 -389v-358z" />
<glyph unicode="?" horiz-adv-x="1118" d="M20 1147q4 72 23 138t59.5 127.5t98.5 106.5t145 72t193 27q217 0 347 -115t130 -305q0 -59 -16 -116.5t-35.5 -98.5t-58.5 -92t-63 -77.5t-71 -75.5q-5 -5 -7.5 -8t-7 -7t-7.5 -8q-70 -73 -97.5 -134.5t-27.5 -125.5v-9h-273v29q0 102 42.5 200.5t135.5 207.5 q85 101 120.5 168t35.5 139q0 64 -49.5 108.5t-126.5 44.5q-87 0 -137.5 -58.5t-53.5 -166.5zM336 0v334h319v-334h-319z" />
<glyph unicode="@" horiz-adv-x="1996" d="M113 532q0 273 115.5 486.5t336 336t512.5 122.5q218 0 389 -58t279.5 -161.5t164.5 -242.5t56 -306q0 -154 -41 -274.5t-112.5 -194.5t-164.5 -112t-202 -38q-160 0 -236 96q-18 21 -32 60q-92 -140 -279 -140q-161 0 -245.5 107.5t-67.5 318.5q11 137 50 236t100 154.5 t134.5 80t161.5 21.5q142 -4 213 -100l17 82l219 -5q-50 -254 -66 -348q-6 -36 -14.5 -89.5t-13 -82t-8.5 -63.5t-5 -60q-3 -67 84 -67q119 0 198 106.5t79 300.5q0 140 -49.5 248t-138.5 175.5t-207.5 101.5t-262.5 34q-171 0 -308.5 -54.5t-227 -151.5t-137.5 -228.5 t-48 -285.5q0 -169 51.5 -299t146.5 -211.5t223.5 -122.5t287.5 -41q112 0 247 30.5t255 86.5l73 -185q-115 -68 -277 -108.5t-306 -40.5q-186 0 -340 44t-265 123t-188 189.5t-114 244t-37 285.5zM829 532q-9 -124 23 -183.5t109 -59.5q75 0 130 59.5t85 212.5l30 184 q-39 99 -151 99q-101 0 -158 -79t-68 -233z" />
<glyph unicode="A" horiz-adv-x="1468" d="M45 0l487 1432h390l501 -1432h-327l-111 352h-508l-104 -352h-328zM549 596h360l-123 397l-59 197l-59 -197z" />
<glyph unicode="B" horiz-adv-x="1345" d="M152 0v1432h495q252 0 387 -92t135 -271q0 -247 -258 -309q163 -22 251.5 -114t88.5 -236q0 -106 -41 -185.5t-116 -128t-175 -72.5t-223 -24h-544zM473 238h193q122 0 188 45.5t66 150.5q0 187 -265 187h-182v-383zM473 864h145q117 0 170.5 40t53.5 128q0 89 -54 127.5 t-172 38.5h-143v-334z" />
<glyph unicode="C" horiz-adv-x="1505" d="M82 721q0 348 176.5 539.5t536.5 191.5q514 0 639 -410l-285 -75q-29 96 -119 162.5t-227 66.5q-389 0 -389 -475q0 -483 395 -483q265 0 354 262l291 -103q-161 -417 -643 -417q-185 0 -326.5 55t-228.5 155t-130.5 233.5t-43.5 297.5z" />
<glyph unicode="D" horiz-adv-x="1519" d="M152 0v1432h528q168 0 305 -43t239 -128.5t158 -222t56 -315.5q0 -172 -54 -311t-148.5 -228t-220.5 -136.5t-274 -47.5h-589zM479 252h236q173 0 282 123.5t109 347.5q0 231 -115.5 344t-316.5 113h-195v-928z" />
<glyph unicode="E" d="M152 0v1432h972v-252h-645v-332h582v-254h-582v-332h658v-262h-985z" />
<glyph unicode="F" horiz-adv-x="1239" d="M152 0v1432h972v-252h-643v-332h602v-254h-602v-594h-329z" />
<glyph unicode="G" horiz-adv-x="1648" d="M82 723q0 346 184.5 537.5t552.5 191.5q262 0 423.5 -100.5t225.5 -282.5l-303 -90q-34 94 -121.5 155.5t-222.5 61.5q-208 0 -307.5 -125t-99.5 -348q0 -110 24.5 -198t73.5 -154t129.5 -102t187.5 -36q114 0 214 32t159 77v184h-334v240h631v-537 q-119 -112 -297 -180.5t-387 -68.5q-190 0 -333 55.5t-229.5 157t-128.5 234t-42 296.5z" />
<glyph unicode="H" horiz-adv-x="1556" d="M154 0v1432h333v-562h594v562h322v-1432h-322v600h-594v-600h-333z" />
<glyph unicode="I" horiz-adv-x="628" d="M152 0v1432h327v-1432h-327z" />
<glyph unicode="J" horiz-adv-x="1193" d="M43 395l315 47q33 -206 185 -206q170 0 170 213v708h-283v264h614v-964q0 -224 -127 -350.5t-366 -126.5q-228 0 -351 99.5t-157 315.5z" />
<glyph unicode="K" horiz-adv-x="1460" d="M152 0v1432h335v-584l508 584h402l-553 -619l606 -813h-403l-445 604l-115 -106v-498h-335z" />
<glyph unicode="L" horiz-adv-x="1234" d="M152 0v1432h327v-1170h662v-262h-989z" />
<glyph unicode="M" horiz-adv-x="1787" d="M152 0v1432h434l262 -830q11 -35 20.5 -69.5t16 -59.5t11 -44.5t7 -31t2.5 -12.5q42 166 56 217l235 830h442v-1432h-292v842q0 47 1 97t2.5 88t3 69t2.5 49l1 18q0 -1 -11.5 -45t-32.5 -124t-44 -158l-244 -836h-233l-279 831q-31 92 -84 310q14 -189 14 -307v-834h-290 z" />
<glyph unicode="N" horiz-adv-x="1540" d="M152 0v1432h370l596 -1067q-20 96 -20 276v791h293v-1432h-385l-584 1057q20 -117 20 -254v-803h-290z" />
<glyph unicode="O" horiz-adv-x="1613" d="M82 719q0 343 192.5 538t532.5 195q346 0 535.5 -195t189.5 -536q0 -338 -194 -539.5t-533 -201.5q-176 0 -314.5 55t-227.5 154t-135 233.5t-46 296.5zM414 723q0 -223 102.5 -354t290.5 -131q198 0 294.5 129t96.5 354q0 224 -100.5 348.5t-288.5 124.5 q-194 0 -294.5 -123t-100.5 -348z" />
<glyph unicode="P" horiz-adv-x="1368" d="M152 0v1432h583q272 0 408.5 -124t136.5 -337q0 -95 -32 -180t-94 -154t-166.5 -109.5t-237.5 -40.5h-271v-487h-327zM479 745h230q119 0 179 59.5t60 162.5t-63 157t-185 54h-221v-433z" />
<glyph unicode="Q" horiz-adv-x="1605" d="M82 721q0 339 190 535t535 196q234 0 398.5 -91t245.5 -254t81 -386q0 -299 -150 -492t-426 -237v-12q0 -37 7.5 -65t24 -44.5t33 -26.5t44.5 -14t46.5 -5t51.5 -1h221v-230q-75 -6 -268 -6q-465 0 -465 369v35q-277 42 -423 237.5t-146 491.5zM414 723 q0 -226 102 -355.5t291 -129.5q193 0 292 126.5t99 356.5q0 227 -100 350t-289 123q-195 0 -295 -121.5t-100 -349.5z" />
<glyph unicode="R" horiz-adv-x="1449" d="M152 0v1432h596q268 0 405 -116t137 -323q0 -339 -291 -430l365 -563h-369l-315 528h-201v-528h-327zM479 784h238q122 0 180.5 53t58.5 148q0 193 -243 193h-234v-394z" />
<glyph unicode="S" horiz-adv-x="1363" d="M59 381l303 51q12 -50 30 -84.5t52 -64.5t91 -45t137 -15q295 0 295 174q0 31 -13 57.5t-39.5 47t-57.5 37t-77.5 30.5t-88 24.5t-99.5 22.5q-57 12 -103.5 25t-97.5 32.5t-90.5 42.5t-76 56.5t-60.5 72.5t-38.5 91t-14.5 113q0 195 150.5 299t408.5 104q272 0 404.5 -89 t168.5 -278l-315 -41q-20 90 -85.5 133.5t-183.5 43.5q-121 0 -175 -42.5t-54 -113.5q0 -33 8.5 -58t29.5 -44.5t42.5 -32.5t63.5 -25.5t74.5 -20.5t92.5 -20q203 -42 290 -77q180 -73 231 -222q22 -66 22 -149q0 -206 -150.5 -321t-461.5 -115q-147 0 -254 25.5 t-179.5 77.5t-115 124.5t-64.5 173.5z" />
<glyph unicode="T" horiz-adv-x="1249" d="M25 1180v252h1198v-252h-437v-1180h-329v1180h-432z" />
<glyph unicode="U" horiz-adv-x="1529" d="M152 541v891h327v-867q0 -166 74 -247.5t215 -81.5q142 0 212.5 83.5t70.5 255.5v857h329v-877q0 -289 -161.5 -432t-456.5 -143q-287 0 -448.5 137.5t-161.5 423.5z" />
<glyph unicode="V" horiz-adv-x="1376" d="M10 1432h342l269 -881q17 -56 32 -110.5t23.5 -86t14.5 -56t7 -26.5q25 124 70 279l258 881h340l-502 -1432h-344z" />
<glyph unicode="W" horiz-adv-x="1982" d="M10 1432h332l156 -766l73 -353q29 167 78 392l158 727h377l162 -727q21 -98 39 -193.5t27 -146.5t9 -52l68 353l151 766h332l-354 -1432h-391l-178 805q-21 91 -38.5 186.5t-19.5 116.5q0 -2 -4 -22t-9.5 -50.5t-12.5 -67.5t-16 -81t-17 -82l-178 -805h-389z" />
<glyph unicode="X" horiz-adv-x="1384" d="M10 0l482 756l-441 676h344l297 -492l299 492h342l-420 -678l461 -754h-342l-340 555l-338 -555h-344z" />
<glyph unicode="Y" horiz-adv-x="1345" d="M10 1432h342l318 -584l323 584h342l-497 -846v-586h-328v586z" />
<glyph unicode="Z" horiz-adv-x="1304" d="M72 0v231l737 945h-670v256h1039v-228l-742 -948h781v-256h-1145z" />
<glyph unicode="[" horiz-adv-x="792" d="M164 -475v2081h588v-211h-293v-1657h293v-213h-588z" />
<glyph unicode="\" horiz-adv-x="800" d="M82 1606h287l309 -2081h-287z" />
<glyph unicode="]" horiz-adv-x="792" d="M41 -264h293v1657h-293v213h588v-2081h-588v211z" />
<glyph unicode="^" horiz-adv-x="1280" d="M80 283l389 790h330l401 -790h-252l-315 632l-305 -632h-248z" />
<glyph unicode="_" horiz-adv-x="1024" d="M0 0h1024v-195h-1024v195z" />
<glyph unicode="`" horiz-adv-x="747" d="M102 1520v2h279l264 -322v-2h-194z" />
<glyph unicode="a" horiz-adv-x="1198" d="M61 307q0 188 133.5 271.5t409.5 83.5h109v92q0 91 -39.5 131.5t-116.5 40.5q-76 0 -117 -41.5t-41 -118.5l-295 18q14 154 132 244t339 90q229 0 339 -101t110 -300v-432q0 -40 17.5 -60t60.5 -20h76v-217q-93 -8 -172 -8q-120 0 -193 52.5t-74 149.5 q-37 -101 -121.5 -151.5t-201.5 -50.5q-88 0 -157.5 27.5t-112 74t-64 104t-21.5 121.5zM373 336q0 -64 39.5 -108t113.5 -44q84 0 135.5 61t51.5 171v82h-140q-88 0 -144 -38t-56 -124z" />
<glyph unicode="b" horiz-adv-x="1294" d="M135 0q8 115 8 258v1348h320v-633q0 -34 -4 -74q32 112 122 165.5t214 53.5q215 0 319.5 -149t104.5 -414q0 -174 -43.5 -300.5t-140 -200.5t-240.5 -74q-114 0 -209 55.5t-127 152.5q-1 -39 -7.5 -108.5t-7.5 -79.5h-309zM459 547q0 -100 20 -171.5t53.5 -107.5 t69 -51.5t76.5 -15.5q207 0 207 350q0 177 -51 259.5t-156 82.5q-32 0 -60 -8t-58 -31.5t-51.5 -60.5t-35.5 -100t-14 -146z" />
<glyph unicode="c" horiz-adv-x="1165" d="M76 545q0 275 136.5 424t393.5 149q112 0 203.5 -31t151 -85.5t95.5 -124t46 -150.5l-316 -14q-9 88 -54.5 136t-125.5 48q-102 0 -149 -83.5t-47 -258.5q0 -184 49.5 -272t152.5 -88q75 0 124 49.5t59 150.5l313 -12q-10 -83 -44.5 -154t-94.5 -127.5t-153 -89 t-210 -32.5q-261 0 -395.5 149.5t-134.5 415.5z" />
<glyph unicode="d" horiz-adv-x="1282" d="M76 553q0 265 109 415t319 150q128 0 214.5 -53t117.5 -145q-5 108 -5 131v555h320v-1364q0 -119 8 -242h-311q-14 96 -14 199q-31 -98 -123.5 -158.5t-237.5 -60.5q-86 0 -154 30t-113 81.5t-75 125t-42.5 156.5t-12.5 180zM410 557q0 -179 50 -267.5t154 -88.5 q42 0 79 17t70.5 55.5t53 112t19.5 175.5q0 97 -19 166t-52.5 105t-69.5 51.5t-79 15.5q-103 0 -154.5 -82.5t-51.5 -259.5z" />
<glyph unicode="e" horiz-adv-x="1179" d="M70 555q0 155 41.5 267.5t116.5 175.5t168 91.5t208 28.5q504 0 504 -532l-4 -97h-694v-28q0 -55 10.5 -102.5t32.5 -88t63 -63.5t96 -23q75 0 117 36.5t55 115.5l303 -19q-17 -73 -46.5 -129t-83.5 -105.5t-143.5 -76t-211.5 -26.5q-260 0 -396 144t-136 431zM410 674 h368v4q0 136 -45.5 192t-134.5 56q-85 0 -134.5 -57t-53.5 -195z" />
<glyph unicode="f" horiz-adv-x="782" d="M31 868v230h162v190q0 158 79 244t260 86q91 0 199 -6v-230h-113q-58 0 -80 -20t-22 -80v-184h213v-230h-213v-868h-323v868h-162z" />
<glyph unicode="g" horiz-adv-x="1286" d="M76 563q0 267 108.5 411t319.5 144q121 0 211.5 -54t126.5 -153q6 97 16 187h305q-8 -70 -8 -260v-846q0 -479 -545 -479q-122 0 -214.5 25t-149 70.5t-88.5 101t-43 124.5l315 31q27 -150 191 -150q104 0 158.5 62.5t54.5 206.5v159q0 44 2 64q-81 -205 -353 -205 q-206 0 -306.5 146t-100.5 415zM410 563q0 -167 50.5 -249.5t155.5 -82.5q44 0 81 16.5t69.5 52.5t51 104.5t18.5 162.5q0 172 -62 249t-156 77q-101 0 -154.5 -78t-53.5 -252z" />
<glyph unicode="h" horiz-adv-x="1284" d="M139 0v1606h326v-531q0 -103 -8 -217q42 133 136.5 196.5t215.5 63.5q180 0 268 -110.5t88 -305.5v-702h-325v616q0 256 -170 256q-94 0 -149.5 -80t-55.5 -208v-584h-326z" />
<glyph unicode="i" horiz-adv-x="583" d="M143 0v1098h318v-1098h-318zM143 1235v299h318v-299h-318z" />
<glyph unicode="j" horiz-adv-x="591" d="M-29 -236h49q78 0 102.5 32t24.5 128v1174h322v-1284q0 -137 -77.5 -219t-229.5 -82q-89 0 -191 4v247zM147 1235v299h322v-299h-322z" />
<glyph unicode="k" horiz-adv-x="1198" d="M137 0v1606h320v-940l358 432h340l-371 -434l404 -664h-346l-275 477l-110 -92v-385h-320z" />
<glyph unicode="l" horiz-adv-x="593" d="M137 0v1606h320v-1606h-320z" />
<glyph unicode="m" horiz-adv-x="1878" d="M137 1098h312q10 -130 14 -224q37 122 120.5 183t200.5 61q254 0 312 -254q36 125 124.5 189.5t209.5 64.5q327 0 327 -403v-715h-327v659q0 110 -32 162.5t-112 52.5q-79 0 -127.5 -67.5t-48.5 -188.5v-618h-322v649q0 117 -32 171t-113 54q-80 0 -127 -68t-47 -200 v-606h-322v850q0 146 -10 248z" />
<glyph unicode="n" horiz-adv-x="1286" d="M137 1098h307q1 -9 4.5 -50t7 -89.5t5.5 -86.5q41 121 130.5 183.5t219.5 62.5q80 0 142.5 -21.5t101.5 -57t64.5 -86.5t35.5 -106t10 -120v-727h-325v643q0 119 -38.5 175t-131.5 56q-97 0 -151 -78t-54 -214v-582h-322v844q0 71 -6 254z" />
<glyph unicode="o" d="M76 551q0 259 141.5 413t413.5 154q143 0 250.5 -41t172.5 -117.5t96.5 -178.5t31.5 -230q0 -267 -141 -419t-416 -152q-269 0 -409 153t-140 418zM403 549q0 -171 59.5 -263.5t164.5 -92.5q117 0 173 86.5t56 269.5q0 170 -58 258t-165 88q-230 0 -230 -346z" />
<glyph unicode="p" horiz-adv-x="1296" d="M137 1098h314q10 -147 10 -195q71 215 352 215q85 0 153 -27.5t115.5 -76.5t79 -120t46 -155t14.5 -184q0 -273 -106.5 -424t-319.5 -151q-252 0 -338 204q8 -90 8 -180v-477h-318v1313q0 120 -10 258zM461 549q0 -100 20 -172t53.5 -108.5t68.5 -52t75 -15.5 q209 0 209 350q0 180 -52.5 261t-156.5 81q-33 0 -62 -9.5t-58 -33.5t-50 -62t-34 -99t-13 -140z" />
<glyph unicode="q" horiz-adv-x="1277" d="M76 551q0 268 107.5 417.5t322.5 149.5q113 0 199.5 -47.5t128.5 -150.5q0 30 6 97t8 81h307q-4 -140 -4 -242v-1329h-315v573l4 86q-98 -206 -359 -206q-137 0 -229.5 74.5t-134 200t-41.5 296.5zM410 549q0 -348 206 -348q33 0 63 10t59.5 35t50.5 63.5t34 101 t13 142.5q0 99 -19.5 169t-53 105.5t-69 50.5t-76.5 15q-102 0 -155 -80.5t-53 -263.5z" />
<glyph unicode="r" horiz-adv-x="872" d="M135 1098h316q13 -154 14 -199q25 99 97 159t190 60q44 0 69 -4v-272q-45 6 -108 6q-122 0 -183 -75.5t-61 -203.5v-569h-324v838q0 54 -3.5 148t-6.5 112z" />
<glyph unicode="s" horiz-adv-x="1067" d="M63 301l291 33q7 -64 51 -107t132 -43q157 0 157 109q0 55 -47.5 83.5t-183.5 59.5q-201 46 -284 129.5t-83 222.5q0 151 114 240.5t325 89.5q192 0 312.5 -86t139.5 -223l-297 -21q-3 63 -49 97.5t-117 34.5q-69 0 -103 -25.5t-34 -65.5q0 -35 14.5 -56t67.5 -44 t158 -47q74 -17 127.5 -34.5t105.5 -45t84.5 -62.5t52 -86t19.5 -116q0 -171 -121 -264.5t-354 -93.5q-119 0 -209.5 26t-145 72t-84 101t-39.5 122z" />
<glyph unicode="t" horiz-adv-x="802" d="M31 866v232h145v336h322v-336h209v-232h-209v-516q0 -58 23.5 -80t86.5 -22h103v-256q-14 -1 -61 -4.5t-89 -5.5t-94 -2q-140 0 -215.5 80t-75.5 231v575h-145z" />
<glyph unicode="u" horiz-adv-x="1292" d="M123 365v733h323v-645q0 -120 38 -175t132 -55q96 0 150.5 73.5t54.5 203.5v598h326v-850q0 -198 8 -248h-311q-15 150 -15 225q-96 -245 -352 -245q-78 0 -140 21.5t-101.5 57t-65.5 86t-36.5 104.5t-10.5 116z" />
<glyph unicode="v" horiz-adv-x="1128" d="M-10 1098h321l189 -586l75 -264l74 264l174 586h316l-381 -1098h-375z" />
<glyph unicode="w" horiz-adv-x="1679" d="M-10 1098h307l133 -625l39 -192q14 96 39 194l160 623h346l160 -625l45 -194q16 100 36 194l138 625h297l-283 -1098h-350l-166 645q-16 62 -31.5 137t-17.5 95q-20 -122 -49 -232l-162 -645h-359z" />
<glyph unicode="x" horiz-adv-x="1163" d="M-10 0l405 569l-387 529h338l225 -340l222 340h337l-385 -527l408 -571h-338l-244 383l-247 -383h-334z" />
<glyph unicode="y" horiz-adv-x="1132" d="M-10 1098h315l174 -512l96 -295q54 153 99 303l151 504h318l-471 -1309q-20 -55 -43 -96.5t-47 -71t-55 -49.5t-60 -31.5t-70 -18t-76.5 -8t-87.5 -1.5h-159v251h159q60 0 92.5 20t49.5 69l43 120z" />
<glyph unicode="z" horiz-adv-x="1054" d="M82 0l2 215l520 662h-493v221h843v-219l-516 -656h545v-223h-901z" />
<glyph unicode="{" horiz-adv-x="886" d="M82 426v219q117 3 177 56t60 176v423q0 147 79 226.5t212 79.5h236v-211h-96q-136 0 -136 -144v-430q0 -118 -61 -189.5t-154 -90.5v-4q95 -23 155 -94t60 -185v-383q0 -72 30.5 -104.5t90.5 -32.5h111v-213h-250q-121 0 -199 83t-78 220v371q0 123 -60.5 175t-176.5 52z " />
<glyph unicode="|" horiz-adv-x="772" d="M246 1606h280v-2079h-278z" />
<glyph unicode="}" horiz-adv-x="886" d="M41 -262h111q60 0 90 32.5t30 104.5v383q0 114 60 185t155 94v4q-93 19 -154 90.5t-61 189.5v430q0 144 -135 144h-96v211h235q133 0 212 -79.5t79 -226.5v-423q0 -123 60.5 -176t177.5 -56v-219q-116 0 -177 -52t-61 -175v-371q0 -137 -77.5 -220t-198.5 -83h-250v213z " />
<glyph unicode="~" horiz-adv-x="1210" d="M78 541v237q115 84 276 84q53 0 115.5 -13t103 -26t109.5 -37q131 -43 203 -43q135 0 252 95v-244q-66 -44 -126.5 -62t-146.5 -18q-48 0 -104 11t-93 22.5t-104 34.5q-142 49 -225 49q-73 0 -134 -22.5t-126 -67.5z" />
<glyph unicode="&#xa1;" horiz-adv-x="669" d="M164 -180l37 856h268l37 -852v-313h-342v309zM176 782v334h320v-334h-320z" />
<glyph unicode="&#xa2;" horiz-adv-x="1155" d="M53 696q0 252 114.5 389.5t313.5 163.5v273h195v-275q178 -28 278.5 -143t106.5 -268l-330 -31q-25 207 -164 207q-84 0 -129 -67t-45 -236q0 -76 7.5 -131.5t27 -102t56 -70.5t89.5 -24q78 0 115 52t47 153l334 -21q-21 -179 -118.5 -288.5t-274.5 -135.5v-307h-195v307 q-198 27 -313 170.5t-115 384.5z" />
<glyph unicode="&#xa3;" horiz-adv-x="1155" d="M10 608v185h191v241q0 90 23 163.5t71.5 132t132.5 90.5t199 32q101 0 174.5 -21.5t121 -65t76.5 -96.5t50 -128l-254 -47q-22 84 -59.5 118.5t-108.5 34.5q-79 0 -116.5 -52t-37.5 -161v-241h260v-185h-260v-82q0 -108 -47 -179.5t-143 -119.5h360q111 0 165.5 50 t72.5 151l258 -45q-15 -76 -46.5 -142t-80.5 -121.5t-123 -87.5t-166 -32h-700v223q44 25 72 47.5t54.5 57.5t39 84.5t12.5 115.5v80h-191z" />
<glyph unicode="&#xa4;" horiz-adv-x="1155" d="M43 334l147 149q-53 101 -53 213t56 213l-146 146l172 174l146 -150q99 58 215 58q112 0 213 -56l147 150l174 -174l-147 -148q55 -99 55 -213q0 -112 -53 -213l145 -143l-174 -178l-141 147q-102 -57 -219 -57q-118 0 -220 57l-145 -151zM385 698q0 -86 52.5 -140 t137.5 -54t138 54t53 140q0 80 -53 135.5t-140 55.5q-86 0 -137 -53t-51 -138z" />
<glyph unicode="&#xa5;" horiz-adv-x="1155" d="M10 1432h320l245 -592l252 592h318l-354 -738h268v-151h-332v-125h332v-158h-332v-260h-301v260h-330v158h330v125h-330v151h273z" />
<glyph unicode="&#xa6;" horiz-adv-x="770" d="M246 389h278v-862h-278v862zM246 743v863h278v-863h-278z" />
<glyph unicode="&#xa7;" horiz-adv-x="1157" d="M51 119l240 37q22 -86 88.5 -121t179.5 -35q252 0 252 145q0 80 -75 121q-55 30 -229 70l-36 8q-62 14 -110 29t-102 42t-89 59.5t-58.5 82t-23.5 109.5q0 179 219 243q-84 39 -137 108t-53 167q0 151 115 234t327 83q189 0 316.5 -69.5t158.5 -208.5l-235 -23 q-14 62 -84 95.5t-146 33.5q-98 0 -153.5 -30.5t-55.5 -94.5q0 -37 20.5 -64.5t62.5 -46.5t84.5 -31t107.5 -28q2 0 3 -0.5t3 -1t4 -0.5q77 -18 130.5 -34.5t112.5 -44t94.5 -60t59 -82t23.5 -111.5q0 -194 -207 -260q100 -41 145.5 -104.5t45.5 -159.5q0 -164 -120 -256 t-370 -92q-218 0 -344 67.5t-164 223.5zM336 692q0 -63 56.5 -100t195.5 -74q235 24 235 148q0 68 -64 113.5t-210 72.5q-213 -37 -213 -160z" />
<glyph unicode="&#xa8;" horiz-adv-x="890" d="M102 1210v234h230v-234h-230zM553 1210v234h235v-234h-235z" />
<glyph unicode="&#xa9;" horiz-adv-x="1589" d="M72 707q0 197 96.5 363.5t263 263t363.5 96.5q196 0 362 -96.5t263.5 -263t97.5 -363.5q0 -196 -97.5 -362.5t-264 -263.5t-361.5 -97q-196 0 -362.5 97t-263.5 263.5t-97 362.5zM186 707q0 -124 48.5 -237t130 -195t194 -130.5t236.5 -48.5q165 0 305.5 82t222.5 223 t82 306t-82 305t-222.5 221.5t-305.5 81.5t-305.5 -81.5t-222 -221.5t-81.5 -305zM403 709q0 197 99 306t297 109q261 0 352 -229l-156 -41q-23 55 -71 92t-121 37q-219 0 -219 -274q0 -129 56 -206t167 -77q74 0 123.5 42t73.5 101l159 -47q-23 -50 -50 -87.5t-68.5 -74 t-101.5 -56t-136 -19.5q-201 0 -302.5 115.5t-101.5 308.5z" />
<glyph unicode="&#xaa;" horiz-adv-x="890" d="M35 881q0 122 92.5 183t265.5 64l111 2v48q0 118 -107 118q-101 0 -110 -106l-217 16q4 48 24 90.5t58 79.5t105 58.5t155 21.5q147 0 230 -66.5t83 -201.5v-293q0 -38 11.5 -56t39.5 -18q33 0 47 2v-161q-54 -7 -121 -7q-70 0 -116.5 30t-59.5 87l-4 10q-27 -65 -93 -99 t-148 -34q-105 0 -175.5 62.5t-70.5 169.5zM264 907q0 -42 25 -66t76 -24q68 0 103.5 43.5t35.5 120.5v33l-82 -2q-78 -2 -118 -24.5t-40 -80.5z" />
<glyph unicode="&#xab;" d="M102 545v4l265 405h301v-2l-256 -407l258 -400v-2h-301zM588 545v4l264 405h301v-2l-256 -407l258 -400v-2h-301z" />
<glyph unicode="&#xac;" horiz-adv-x="1210" d="M78 567v248h1050v-682h-247v434h-803z" />
<glyph unicode="&#xad;" horiz-adv-x="739" d="M102 401v271h535v-271h-535z" />
<glyph unicode="&#xaf;" horiz-adv-x="1179" d="M102 1305v155h975v-155h-975z" />
<glyph unicode="&#xb0;" horiz-adv-x="825" d="M78 1116q0 139 97.5 234.5t236.5 95.5t238.5 -96t99.5 -234q0 -136 -99.5 -232t-238.5 -96q-138 0 -236 96t-98 232zM248 1116q0 -67 48.5 -116.5t115.5 -49.5q68 0 115.5 49.5t47.5 116.5q0 72 -47 119t-116 47q-68 0 -116 -47.5t-48 -118.5z" />
<glyph unicode="&#xb1;" horiz-adv-x="1136" d="M43 0v248h1051v-248h-1051zM43 725v250h401v328h248v-328h402v-250h-402v-330h-248v330h-401z" />
<glyph unicode="&#xb4;" horiz-adv-x="751" d="M102 1198v2l271 322h276v-2l-327 -322h-220z" />
<glyph unicode="&#xb6;" horiz-adv-x="1163" d="M68 1065q0 172 98.5 269.5t277.5 97.5h658v-158h-133v-1542h-170v1542h-193v-1542h-170v973q-169 0 -268.5 92.5t-99.5 267.5z" />
<glyph unicode="&#xb7;" horiz-adv-x="688" d="M184 412v333h320v-333h-320z" />
<glyph unicode="&#xb8;" horiz-adv-x="624" d="M102 -297q26 -6 86 -6q138 0 138 65q0 35 -29.5 51.5t-93.5 16.5q-33 0 -51 -2l61 172h156l-31 -78q92 -4 138 -45.5t46 -109.5q0 -88 -73 -142.5t-240 -54.5q-49 0 -107 6v127z" />
<glyph unicode="&#xba;" horiz-adv-x="862" d="M41 1053q0 193 97.5 298t285.5 105q189 0 283 -103t94 -296q0 -199 -95.5 -303.5t-285.5 -104.5q-183 0 -281 105.5t-98 298.5zM285 1061q0 -139 33.5 -194.5t101.5 -55.5q73 0 106 55t33 195q0 129 -32.5 180t-102.5 51q-72 0 -105.5 -51t-33.5 -180z" />
<glyph unicode="&#xbb;" d="M102 952v2h301l267 -401v-4l-264 -406h-302v2l256 408zM588 952v2h301l266 -401v-4l-264 -406h-301v2l256 408z" />
<glyph unicode="&#xbf;" horiz-adv-x="1097" d="M102 -102q0 50 9 96t29.5 88.5t39.5 75.5t52.5 73.5t54.5 63t59 62.5l8 8t7 7.5t8 8.5q70 73 97.5 134.5t27.5 125.5v8h272v-28q0 -102 -42.5 -200.5t-135.5 -207.5q-85 -101 -120.5 -168t-35.5 -139q0 -64 49.5 -109t126.5 -45q87 0 137.5 58.5t53.5 166.5l299 -28 q-4 -72 -23 -138t-59 -127.5t-98 -106.5t-145 -72t-193 -27q-218 0 -348 115t-130 305zM463 762v334h319v-334h-319z" />
<glyph unicode="&#xc0;" horiz-adv-x="1468" d="M45 0h328l104 352h508l111 -352h327l-501 1432h-390zM248 1823v2h336l293 -322v-2h-224zM549 596l119 397l59 197l59 -197l123 -397h-360z" />
<glyph unicode="&#xc1;" horiz-adv-x="1468" d="M45 0h328l104 352h508l111 -352h327l-501 1432h-390zM549 596l119 397l59 197l59 -197l123 -397h-360zM580 1501v2l299 322h329v-2l-381 -322h-247z" />
<glyph unicode="&#xc2;" horiz-adv-x="1468" d="M45 0h328l104 352h508l111 -352h327l-501 1432h-390zM319 1501v2l291 365h240l283 -365v-2h-199l-201 199h-4l-209 -199h-201zM549 596l119 397l59 197l59 -197l123 -397h-360z" />
<glyph unicode="&#xc3;" horiz-adv-x="1468" d="M45 0h328l104 352h508l111 -352h327l-501 1432h-390zM322 1501v23q0 51 9.5 95t33 88.5t72.5 70.5t120 26q42 0 94 -20t92 -44.5t82 -44.5t68 -20q90 0 90 115v14h150v-14q0 -46 -5 -84t-19.5 -77.5t-39.5 -66.5t-67.5 -44t-100.5 -17q-52 0 -118 31.5t-124 62.5t-90 31 q-94 0 -94 -108v-17h-153zM549 596l119 397l59 197l59 -197l123 -397h-360z" />
<glyph unicode="&#xc4;" horiz-adv-x="1468" d="M45 0h328l104 352h508l111 -352h327l-501 1432h-390zM391 1513v234h230v-234h-230zM549 596l119 397l59 197l59 -197l123 -397h-360zM842 1513v234h235v-234h-235z" />
<glyph unicode="&#xc5;" horiz-adv-x="1468" d="M45 0h328l104 352h508l111 -352h327l-501 1432h-390zM477 1694q0 104 75 179t179 75q105 0 179.5 -74.5t74.5 -179.5q0 -107 -74 -180.5t-180 -73.5q-105 0 -179.5 73.5t-74.5 180.5zM549 596l119 397l59 197l59 -197l123 -397h-360zM606 1694q0 -54 35.5 -91.5 t89.5 -37.5t90.5 37.5t36.5 91.5q0 50 -37 87.5t-90 37.5t-89 -37t-36 -88z" />
<glyph unicode="&#xc6;" horiz-adv-x="2105" d="M45 0l705 1427l1222 3v-246h-649v-334h588v-252h-588v-336h662v-262h-988v360h-452l-170 -360h-330zM649 582h348v610h-61l-96 -209z" />
<glyph unicode="&#xc7;" horiz-adv-x="1505" d="M82 721q0 348 176.5 539.5t536.5 191.5q514 0 639 -410l-285 -75q-29 96 -119 162.5t-227 66.5q-389 0 -389 -475q0 -483 395 -483q265 0 354 262l291 -103q-151 -387 -577 -415l-23 -60q92 -4 138 -45.5t46 -109.5q0 -88 -73 -142.5t-240 -54.5q-49 0 -107 6v127 q31 -6 87 -6q137 0 137 65q0 35 -29.5 51.5t-93.5 16.5q-33 0 -51 -2l55 156q-163 12 -287 71.5t-200.5 157.5t-115 225.5t-38.5 282.5z" />
<glyph unicode="&#xc8;" d="M152 0v1432h972v-252h-645v-332h582v-254h-582v-332h658v-262h-985zM162 1827v2h336l293 -322v-2h-224z" />
<glyph unicode="&#xc9;" d="M152 0v1432h972v-252h-645v-332h582v-254h-582v-332h658v-262h-985zM494 1505v2l299 322h329v-2l-381 -322h-247z" />
<glyph unicode="&#xca;" d="M152 0v1432h972v-252h-645v-332h582v-254h-582v-332h658v-262h-985zM233 1505v2l291 365h240l283 -365v-2h-199l-201 199h-4l-209 -199h-201z" />
<glyph unicode="&#xcb;" d="M152 0v1432h972v-252h-645v-332h582v-254h-582v-332h658v-262h-985zM305 1518v233h230v-233h-230zM756 1518v233h235v-233h-235z" />
<glyph unicode="&#xcc;" horiz-adv-x="628" d="M-213 1827v2h336l293 -322v-2h-223zM152 0v1432h327v-1432h-327z" />
<glyph unicode="&#xcd;" horiz-adv-x="628" d="M141 1505v2l232 322h338v-2l-349 -322h-221zM152 0v1432h327v-1432h-327z" />
<glyph unicode="&#xce;" horiz-adv-x="628" d="M-141 1505v2l291 365h239l283 -365v-2h-199l-201 199h-4l-209 -199h-200zM152 0v1432h327v-1432h-327z" />
<glyph unicode="&#xcf;" horiz-adv-x="628" d="M-70 1518v233h230v-233h-230zM152 0v1432h327v-1432h-327zM381 1518v233h235v-233h-235z" />
<glyph unicode="&#xd0;" horiz-adv-x="1519" d="M-68 573v234h220v625h528q168 0 305 -43t239 -128.5t158 -222t56 -315.5q0 -172 -54 -311t-148.5 -228t-220.5 -136.5t-274 -47.5h-589v573h-220zM479 252h236q173 0 282 123.5t109 347.5q0 231 -115.5 344t-316.5 113h-195v-373h320v-234h-320v-321z" />
<glyph unicode="&#xd1;" horiz-adv-x="1540" d="M152 0v1432h370l596 -1067q-20 96 -20 276v791h293v-1432h-385l-584 1057q20 -117 20 -254v-803h-290zM336 1505v23q0 51 9.5 95t33 88.5t72.5 70.5t120 26q42 0 94 -20t92 -44.5t82 -44.5t68 -20q90 0 90 115v14h150v-14q0 -46 -5 -84t-19.5 -77.5t-39.5 -66.5 t-67.5 -44t-100.5 -17q-52 0 -117.5 31.5t-123.5 62.5t-90 31q-95 0 -95 -108v-17h-153z" />
<glyph unicode="&#xd2;" horiz-adv-x="1613" d="M82 719q0 343 192.5 538t532.5 195q346 0 535.5 -195t189.5 -536q0 -338 -194 -539.5t-533 -201.5q-176 0 -314.5 55t-227.5 154t-135 233.5t-46 296.5zM305 1827v2h336l293 -322v-2h-223zM414 723q0 -223 102.5 -354t290.5 -131q198 0 294.5 129t96.5 354 q0 224 -100.5 348.5t-288.5 124.5q-194 0 -294.5 -123t-100.5 -348z" />
<glyph unicode="&#xd3;" horiz-adv-x="1613" d="M82 719q0 343 192.5 538t532.5 195q346 0 535.5 -195t189.5 -536q0 -338 -194 -539.5t-533 -201.5q-176 0 -314.5 55t-227.5 154t-135 233.5t-46 296.5zM414 723q0 -223 102.5 -354t290.5 -131q198 0 294.5 129t96.5 354q0 224 -100.5 348.5t-288.5 124.5 q-194 0 -294.5 -123t-100.5 -348zM637 1505v2l299 322h330v-2l-381 -322h-248z" />
<glyph unicode="&#xd4;" horiz-adv-x="1613" d="M82 719q0 343 192.5 538t532.5 195q346 0 535.5 -195t189.5 -536q0 -338 -194 -539.5t-533 -201.5q-176 0 -314.5 55t-227.5 154t-135 233.5t-46 296.5zM377 1505v2l291 365h239l283 -365v-2h-199l-200 199h-5l-208 -199h-201zM414 723q0 -223 102.5 -354t290.5 -131 q198 0 294.5 129t96.5 354q0 224 -100.5 348.5t-288.5 124.5q-194 0 -294.5 -123t-100.5 -348z" />
<glyph unicode="&#xd5;" horiz-adv-x="1613" d="M82 719q0 343 192.5 538t532.5 195q346 0 535.5 -195t189.5 -536q0 -338 -194 -539.5t-533 -201.5q-176 0 -314.5 55t-227.5 154t-135 233.5t-46 296.5zM379 1505v23q0 51 9.5 95t33 88.5t72.5 70.5t120 26q42 0 94 -20t92 -44.5t82 -44.5t68 -20q90 0 90 115v14h150v-14 q0 -46 -5 -84t-19.5 -77.5t-39.5 -66.5t-67.5 -44t-100.5 -17q-52 0 -117.5 31.5t-123.5 62.5t-90 31q-95 0 -95 -108v-17h-153zM414 723q0 -223 102.5 -354t290.5 -131q198 0 294.5 129t96.5 354q0 224 -100.5 348.5t-288.5 124.5q-194 0 -294.5 -123t-100.5 -348z" />
<glyph unicode="&#xd6;" horiz-adv-x="1613" d="M82 719q0 343 192.5 538t532.5 195q346 0 535.5 -195t189.5 -536q0 -338 -194 -539.5t-533 -201.5q-176 0 -314.5 55t-227.5 154t-135 233.5t-46 296.5zM414 723q0 -223 102.5 -354t290.5 -131q198 0 294.5 129t96.5 354q0 224 -100.5 348.5t-288.5 124.5 q-194 0 -294.5 -123t-100.5 -348zM449 1518v233h229v-233h-229zM899 1518v233h236v-233h-236z" />
<glyph unicode="&#xd7;" horiz-adv-x="1208" d="M68 330l362 362l-358 361l176 172l358 -357l359 361l174 -176l-359 -359l359 -356l-174 -178l-359 358l-362 -362z" />
<glyph unicode="&#xd8;" horiz-adv-x="1613" d="M0 -55l246 264q-164 191 -164 510q0 343 192.5 538t532.5 195q281 0 465 -135l155 166h185l-240 -260q160 -192 160 -502q0 -338 -194 -539.5t-533 -201.5q-282 0 -461 137l-160 -172h-184zM414 723q0 -168 53 -277l604 652q-104 96 -262 96q-194 0 -294.5 -123 t-100.5 -348zM547 334q99 -96 260 -96q198 0 294.5 129t96.5 354q0 148 -49 262z" />
<glyph unicode="&#xd9;" horiz-adv-x="1529" d="M152 541v891h327v-867q0 -166 74 -247.5t215 -81.5q142 0 212.5 83.5t70.5 255.5v857h329v-877q0 -289 -161.5 -432t-456.5 -143q-287 0 -448.5 137.5t-161.5 423.5zM291 1827v2h336l293 -322v-2h-224z" />
<glyph unicode="&#xda;" horiz-adv-x="1529" d="M152 541v891h327v-867q0 -166 74 -247.5t215 -81.5q142 0 212.5 83.5t70.5 255.5v857h329v-877q0 -289 -161.5 -432t-456.5 -143q-287 0 -448.5 137.5t-161.5 423.5zM623 1505v2l299 322h329v-2l-381 -322h-247z" />
<glyph unicode="&#xdb;" horiz-adv-x="1529" d="M152 541v891h327v-867q0 -166 74 -247.5t215 -81.5q142 0 212.5 83.5t70.5 255.5v857h329v-877q0 -289 -161.5 -432t-456.5 -143q-287 0 -448.5 137.5t-161.5 423.5zM362 1505v2l291 365h240l283 -365v-2h-199l-201 199h-4l-209 -199h-201z" />
<glyph unicode="&#xdc;" horiz-adv-x="1529" d="M152 541v891h327v-867q0 -166 74 -247.5t215 -81.5q142 0 212.5 83.5t70.5 255.5v857h329v-877q0 -289 -161.5 -432t-456.5 -143q-287 0 -448.5 137.5t-161.5 423.5zM434 1518v233h230v-233h-230zM885 1518v233h235v-233h-235z" />
<glyph unicode="&#xdd;" horiz-adv-x="1345" d="M10 1432h342l318 -584l323 584h342l-497 -846v-586h-328v586zM463 1505v2l299 322h330v-2l-381 -322h-248z" />
<glyph unicode="&#xde;" horiz-adv-x="1368" d="M152 0v1430h325v-216h258q272 0 408.5 -124t136.5 -336q0 -95 -32 -180t-94 -154t-166.5 -109.5t-237.5 -40.5l-271 4v-274h-327zM479 528h230q119 0 179 59.5t60 162.5t-63 157t-185 54h-221v-433z" />
<glyph unicode="&#xdf;" horiz-adv-x="1251" d="M104 2v1081q0 259 141.5 397t411.5 138q125 0 222 -28t156.5 -77t89.5 -111.5t30 -135.5t-23.5 -135t-56.5 -102.5t-66.5 -73t-57 -61t-23.5 -52.5q0 -25 19.5 -49.5t51.5 -48t70 -50t76 -61.5t70 -75.5t51.5 -98t19.5 -123.5q0 -160 -117.5 -258t-330.5 -98 q-168 0 -281 45v221q43 -24 114.5 -35.5t133.5 -11.5q168 0 168 123q0 39 -20 73.5t-52.5 61t-71 52.5t-77.5 56t-71.5 64t-52.5 82.5t-20 105.5q0 55 22.5 101t55 79.5t64.5 65t54.5 73t22.5 89.5q0 72 -42.5 114.5t-131.5 42.5q-227 0 -227 -292v-1090z" />
<glyph unicode="&#xe0;" horiz-adv-x="1198" d="M61 307q0 188 133.5 271.5t409.5 83.5h109v92q0 91 -39.5 131.5t-116.5 40.5q-76 0 -117 -41.5t-41 -118.5l-295 18q14 154 132 244t339 90q229 0 339 -101t110 -300v-432q0 -40 17.5 -60t60.5 -20h76v-217q-93 -8 -172 -8q-120 0 -193 52.5t-74 149.5 q-37 -101 -121.5 -151.5t-201.5 -50.5q-88 0 -157.5 27.5t-112 74t-64 104t-21.5 121.5zM150 1520v2h278l264 -322v-2h-194zM373 336q0 -64 39.5 -108t113.5 -44q84 0 135.5 61t51.5 171v82h-140q-88 0 -144 -38t-56 -124z" />
<glyph unicode="&#xe1;" horiz-adv-x="1198" d="M61 307q0 188 133.5 271.5t409.5 83.5h109v92q0 91 -39.5 131.5t-116.5 40.5q-76 0 -117 -41.5t-41 -118.5l-295 18q14 154 132 244t339 90q229 0 339 -101t110 -300v-432q0 -40 17.5 -60t60.5 -20h76v-217q-93 -8 -172 -8q-120 0 -193 52.5t-74 149.5 q-37 -101 -121.5 -151.5t-201.5 -50.5q-88 0 -157.5 27.5t-112 74t-64 104t-21.5 121.5zM373 336q0 -64 39.5 -108t113.5 -44q84 0 135.5 61t51.5 171v82h-140q-88 0 -144 -38t-56 -124zM424 1198v2l270 322h277v-2l-328 -322h-219z" />
<glyph unicode="&#xe2;" horiz-adv-x="1198" d="M61 307q0 188 133.5 271.5t409.5 83.5h109v92q0 91 -39.5 131.5t-116.5 40.5q-76 0 -117 -41.5t-41 -118.5l-295 18q14 154 132 244t339 90q229 0 339 -101t110 -300v-432q0 -40 17.5 -60t60.5 -20h76v-217q-93 -8 -172 -8q-120 0 -193 52.5t-74 149.5 q-37 -101 -121.5 -151.5t-201.5 -50.5q-88 0 -157.5 27.5t-112 74t-64 104t-21.5 121.5zM170 1198v2l268 365h240l262 -365v-2h-178l-201 199h-4l-209 -199h-178zM373 336q0 -64 39.5 -108t113.5 -44q84 0 135.5 61t51.5 171v82h-140q-88 0 -144 -38t-56 -124z" />
<glyph unicode="&#xe3;" horiz-adv-x="1198" d="M61 307q0 188 133.5 271.5t409.5 83.5h109v92q0 91 -39.5 131.5t-116.5 40.5q-76 0 -117 -41.5t-41 -118.5l-295 18q14 154 132 244t339 90q229 0 339 -101t110 -300v-432q0 -40 17.5 -60t60.5 -20h76v-217q-93 -8 -172 -8q-120 0 -193 52.5t-74 149.5 q-37 -101 -121.5 -151.5t-201.5 -50.5q-88 0 -157.5 27.5t-112 74t-64 104t-21.5 121.5zM133 1198v23q0 40 5 75.5t21 74t41 66.5t68.5 46t100.5 18q53 0 120.5 -32.5t126 -64.5t89.5 -32q90 0 90 115v14h149v-14q0 -46 -4.5 -83.5t-19.5 -77.5t-39.5 -67t-67 -44 t-100.5 -17q-41 0 -91.5 19.5t-90 43t-82 43t-68.5 19.5q-94 0 -94 -109v-16h-154zM373 336q0 -64 39.5 -108t113.5 -44q84 0 135.5 61t51.5 171v82h-140q-88 0 -144 -38t-56 -124z" />
<glyph unicode="&#xe4;" horiz-adv-x="1198" d="M61 307q0 188 133.5 271.5t409.5 83.5h109v92q0 91 -39.5 131.5t-116.5 40.5q-76 0 -117 -41.5t-41 -118.5l-295 18q14 154 132 244t339 90q229 0 339 -101t110 -300v-432q0 -40 17.5 -60t60.5 -20h76v-217q-93 -8 -172 -8q-120 0 -193 52.5t-74 149.5 q-37 -101 -121.5 -151.5t-201.5 -50.5q-88 0 -157.5 27.5t-112 74t-64 104t-21.5 121.5zM229 1210v234h230v-234h-230zM373 336q0 -64 39.5 -108t113.5 -44q84 0 135.5 61t51.5 171v82h-140q-88 0 -144 -38t-56 -124zM680 1210v234h235v-234h-235z" />
<glyph unicode="&#xe5;" horiz-adv-x="1198" d="M61 307q0 188 133.5 271.5t409.5 83.5h109v92q0 91 -39.5 131.5t-116.5 40.5q-76 0 -117 -41.5t-41 -118.5l-295 18q14 154 132 244t339 90q229 0 339 -101t110 -300v-432q0 -40 17.5 -60t60.5 -20h76v-217q-93 -8 -172 -8q-120 0 -193 52.5t-74 149.5 q-37 -101 -121.5 -151.5t-201.5 -50.5q-88 0 -157.5 27.5t-112 74t-64 104t-21.5 121.5zM307 1391q0 104 75 179t179 75q105 0 179.5 -74.5t74.5 -179.5q0 -107 -74 -180.5t-180 -73.5q-105 0 -179.5 73.5t-74.5 180.5zM373 336q0 -64 39.5 -108t113.5 -44q84 0 135.5 61 t51.5 171v82h-140q-88 0 -144 -38t-56 -124zM436 1391q0 -54 35.5 -91.5t89.5 -37.5t90.5 37.5t36.5 91.5q0 50 -37 87.5t-90 37.5t-89 -37t-36 -88z" />
<glyph unicode="&#xe6;" horiz-adv-x="1820" d="M94 307q0 188 133.5 271.5t409.5 83.5h108v92q0 91 -39.5 131.5t-115.5 40.5t-117 -41.5t-41 -118.5l-295 18q14 153 131.5 243.5t323.5 90.5q221 0 330 -100q111 100 317 100q504 0 504 -532l-4 -88h-695v-37q0 -75 17.5 -134.5t65 -101t120.5 -41.5q75 0 117 36.5 t55 115.5l303 -19q-17 -73 -46.5 -129t-83.5 -105.5t-143.5 -76t-211.5 -26.5q-275 0 -403 174q-105 -174 -347 -174q-102 0 -180 27.5t-123 74.5t-67.5 103.5t-22.5 121.5zM406 336q0 -64 39.5 -108t113.5 -44q84 0 135 61t51 171v82h-139q-88 0 -144 -38t-56 -124z M1044 662h369v16q0 136 -45.5 192t-134.5 56q-87 0 -136.5 -60t-52.5 -204z" />
<glyph unicode="&#xe7;" horiz-adv-x="1165" d="M76 545q0 275 136.5 424t393.5 149q112 0 203.5 -31t151 -85.5t95.5 -124t46 -150.5l-316 -14q-9 88 -54.5 136t-125.5 48q-102 0 -149 -83.5t-47 -258.5q0 -184 49.5 -272t152.5 -88q75 0 124 49.5t59 150.5l313 -12q-18 -155 -121 -264t-287 -133l-24 -64 q92 -4 138 -45.5t46 -109.5q0 -88 -73 -142.5t-240 -54.5q-49 0 -107 6v127q26 -6 86 -6q138 0 138 65q0 35 -29.5 51.5t-93.5 16.5q-34 0 -52 -2l56 156q-232 17 -350.5 164t-118.5 397z" />
<glyph unicode="&#xe8;" horiz-adv-x="1179" d="M70 555q0 155 41.5 267.5t116.5 175.5t168 91.5t208 28.5q504 0 504 -532l-4 -97h-694v-28q0 -55 10.5 -102.5t32.5 -88t63 -63.5t96 -23q75 0 117 36.5t55 115.5l303 -19q-17 -73 -46.5 -129t-83.5 -105.5t-143.5 -76t-211.5 -26.5q-260 0 -396 144t-136 431zM186 1520 v2h279l264 -322v-2h-194zM410 674h368v4q0 136 -45.5 192t-134.5 56q-85 0 -134.5 -57t-53.5 -195z" />
<glyph unicode="&#xe9;" horiz-adv-x="1179" d="M70 555q0 155 41.5 267.5t116.5 175.5t168 91.5t208 28.5q504 0 504 -532l-4 -97h-694v-28q0 -55 10.5 -102.5t32.5 -88t63 -63.5t96 -23q75 0 117 36.5t55 115.5l303 -19q-17 -73 -46.5 -129t-83.5 -105.5t-143.5 -76t-211.5 -26.5q-260 0 -396 144t-136 431zM410 674 h368v4q0 136 -45.5 192t-134.5 56q-85 0 -134.5 -57t-53.5 -195zM461 1198v2l270 322h277v-2l-328 -322h-219z" />
<glyph unicode="&#xea;" horiz-adv-x="1179" d="M70 555q0 155 41.5 267.5t116.5 175.5t168 91.5t208 28.5q504 0 504 -532l-4 -97h-694v-28q0 -55 10.5 -102.5t32.5 -88t63 -63.5t96 -23q75 0 117 36.5t55 115.5l303 -19q-17 -73 -46.5 -129t-83.5 -105.5t-143.5 -76t-211.5 -26.5q-260 0 -396 144t-136 431zM207 1198 v2l268 365h240l262 -365v-2h-178l-201 199h-4l-209 -199h-178zM410 674h368v4q0 136 -45.5 192t-134.5 56q-85 0 -134.5 -57t-53.5 -195z" />
<glyph unicode="&#xeb;" horiz-adv-x="1179" d="M70 555q0 155 41.5 267.5t116.5 175.5t168 91.5t208 28.5q504 0 504 -532l-4 -97h-694v-28q0 -55 10.5 -102.5t32.5 -88t63 -63.5t96 -23q75 0 117 36.5t55 115.5l303 -19q-17 -73 -46.5 -129t-83.5 -105.5t-143.5 -76t-211.5 -26.5q-260 0 -396 144t-136 431zM266 1210 v234h230v-234h-230zM410 674h368v4q0 136 -45.5 192t-134.5 56q-85 0 -134.5 -57t-53.5 -195zM717 1210v234h235v-234h-235z" />
<glyph unicode="&#xec;" horiz-adv-x="579" d="M-117 1499v2h279l264 -321v-2h-195zM137 0v1098h320v-1098h-320z" />
<glyph unicode="&#xed;" horiz-adv-x="579" d="M137 0v1098h320v-1098h-320zM180 1178v2l209 321h289v-2l-299 -321h-199z" />
<glyph unicode="&#xee;" horiz-adv-x="579" d="M-96 1178v2l268 364h240l262 -364v-2h-178l-201 198h-4l-209 -198h-178zM137 0v1098h320v-1098h-320z" />
<glyph unicode="&#xef;" horiz-adv-x="579" d="M-37 1190v233h230v-233h-230zM137 0v1098h320v-1098h-320zM414 1190v233h235v-233h-235z" />
<glyph unicode="&#xf0;" horiz-adv-x="1251" d="M74 541q0 261 140.5 409t408.5 148q69 0 135 -17q-62 109 -152 205l-258 -106v182l125 53q-146 118 -264 166v25h350q79 -44 150 -93l268 115v-188l-121 -49q168 -168 245 -376.5t77 -422.5q0 -161 -40.5 -280t-115.5 -191t-174.5 -106.5t-224.5 -34.5q-269 0 -409 149 t-140 412zM399 539q0 -161 57 -253.5t165 -92.5q233 0 233 346q0 163 -54 259.5t-169 96.5q-232 0 -232 -356z" />
<glyph unicode="&#xf1;" horiz-adv-x="1286" d="M137 1098h307q1 -9 4.5 -50t7 -89.5t5.5 -86.5q41 121 130.5 183.5t219.5 62.5q80 0 142.5 -21.5t101.5 -57t64.5 -86.5t35.5 -106t10 -120v-727h-325v643q0 119 -38.5 175t-131.5 56q-97 0 -151 -78t-54 -214v-582h-322v844q0 71 -6 254zM221 1198v23q0 40 5 75.5t21 74 t41 66.5t68.5 46t100.5 18q53 0 120.5 -32.5t126 -64.5t89.5 -32q90 0 90 115v14h149v-14q0 -46 -4.5 -83.5t-19.5 -77.5t-39.5 -67t-67 -44t-100.5 -17q-41 0 -91.5 19.5t-90 43t-82 43t-68.5 19.5q-94 0 -94 -109v-16h-154z" />
<glyph unicode="&#xf2;" d="M76 551q0 259 141.5 413t413.5 154q143 0 250.5 -41t172.5 -117.5t96.5 -178.5t31.5 -230q0 -267 -141 -419t-416 -152q-269 0 -409 153t-140 418zM223 1520v2h279l264 -322v-2h-195zM403 549q0 -171 59.5 -263.5t164.5 -92.5q117 0 173 86.5t56 269.5q0 170 -58 258 t-165 88q-230 0 -230 -346z" />
<glyph unicode="&#xf3;" d="M76 551q0 259 141.5 413t413.5 154q143 0 250.5 -41t172.5 -117.5t96.5 -178.5t31.5 -230q0 -267 -141 -419t-416 -152q-269 0 -409 153t-140 418zM403 549q0 -171 59.5 -263.5t164.5 -92.5q117 0 173 86.5t56 269.5q0 170 -58 258t-165 88q-230 0 -230 -346zM498 1198v2 l270 322h276v-2l-327 -322h-219z" />
<glyph unicode="&#xf4;" d="M76 551q0 259 141.5 413t413.5 154q143 0 250.5 -41t172.5 -117.5t96.5 -178.5t31.5 -230q0 -267 -141 -419t-416 -152q-269 0 -409 153t-140 418zM244 1198v2l268 365h240l262 -365v-2h-178l-201 199h-4l-209 -199h-178zM403 549q0 -171 59.5 -263.5t164.5 -92.5 q117 0 173 86.5t56 269.5q0 170 -58 258t-165 88q-230 0 -230 -346z" />
<glyph unicode="&#xf5;" d="M76 551q0 259 141.5 413t413.5 154q143 0 250.5 -41t172.5 -117.5t96.5 -178.5t31.5 -230q0 -267 -141 -419t-416 -152q-269 0 -409 153t-140 418zM207 1198v23q0 51 9.5 95t33 88.5t72.5 70.5t120 26q53 0 120.5 -32.5t126 -64.5t89.5 -32q90 0 90 115v14h150v-14 q0 -46 -5 -84t-19.5 -77.5t-39.5 -66.5t-67.5 -44t-100.5 -17q-41 0 -91.5 19.5t-89.5 43t-81.5 43t-68.5 19.5q-95 0 -95 -109v-16h-153zM403 549q0 -171 59.5 -263.5t164.5 -92.5q117 0 173 86.5t56 269.5q0 170 -58 258t-165 88q-230 0 -230 -346z" />
<glyph unicode="&#xf6;" d="M76 551q0 259 141.5 413t413.5 154q143 0 250.5 -41t172.5 -117.5t96.5 -178.5t31.5 -230q0 -267 -141 -419t-416 -152q-269 0 -409 153t-140 418zM303 1210v234h229v-234h-229zM403 549q0 -171 59.5 -263.5t164.5 -92.5q117 0 173 86.5t56 269.5q0 170 -58 258t-165 88 q-230 0 -230 -346zM754 1210v234h235v-234h-235z" />
<glyph unicode="&#xf7;" horiz-adv-x="1136" d="M43 567v248h1051v-248h-1051zM438 158v252h260v-252h-260zM438 977v250h260v-250h-260z" />
<glyph unicode="&#xf8;" horiz-adv-x="1251" d="M12 -47l183 205q-119 146 -119 393q0 259 141.5 413t413.5 154q206 0 340 -88l92 103h180v-11l-170 -190q109 -144 109 -381q0 -267 -141 -419t-416 -152q-199 0 -326 83l-104 -118h-183v8zM403 549q0 -87 11 -143l374 419q-58 70 -155 70q-230 0 -230 -346zM475 260 q53 -67 152 -67q117 0 173 86.5t56 269.5q0 64 -10 129z" />
<glyph unicode="&#xf9;" horiz-adv-x="1286" d="M131 365v733h324v-645q0 -120 38 -175t132 -55q95 0 149.5 73.5t54.5 203.5v598h326v-850q0 -198 8 -248h-311q-14 140 -14 225q-96 -245 -353 -245q-78 0 -140 21.5t-101.5 57t-65.5 86t-36.5 104.5t-10.5 116zM223 1520v2h279l264 -322v-2h-195z" />
<glyph unicode="&#xfa;" horiz-adv-x="1286" d="M131 365v733h324v-645q0 -120 38 -175t132 -55q95 0 149.5 73.5t54.5 203.5v598h326v-850q0 -198 8 -248h-311q-14 140 -14 225q-96 -245 -353 -245q-78 0 -140 21.5t-101.5 57t-65.5 86t-36.5 104.5t-10.5 116zM498 1198v2l270 322h276v-2l-327 -322h-219z" />
<glyph unicode="&#xfb;" horiz-adv-x="1286" d="M131 365v733h324v-645q0 -120 38 -175t132 -55q95 0 149.5 73.5t54.5 203.5v598h326v-850q0 -198 8 -248h-311q-14 140 -14 225q-96 -245 -353 -245q-78 0 -140 21.5t-101.5 57t-65.5 86t-36.5 104.5t-10.5 116zM244 1198v2l268 365h240l262 -365v-2h-178l-201 199h-4 l-209 -199h-178z" />
<glyph unicode="&#xfc;" horiz-adv-x="1286" d="M131 365v733h324v-645q0 -120 38 -175t132 -55q95 0 149.5 73.5t54.5 203.5v598h326v-850q0 -198 8 -248h-311q-14 140 -14 225q-96 -245 -353 -245q-78 0 -140 21.5t-101.5 57t-65.5 86t-36.5 104.5t-10.5 116zM303 1210v234h229v-234h-229zM754 1210v234h235v-234h-235 z" />
<glyph unicode="&#xfd;" horiz-adv-x="1132" d="M-10 1098h315l174 -512l96 -295q54 153 99 303l151 504h318l-471 -1309q-20 -55 -43 -96.5t-47 -71t-55 -49.5t-60 -31.5t-70 -18t-76.5 -8t-87.5 -1.5h-159v251h159q60 0 92.5 20t49.5 69l43 120zM430 1219v2l270 321h277v-2l-328 -321h-219z" />
<glyph unicode="&#xfe;" horiz-adv-x="1296" d="M147 -473v2081h314v-697h2q75 207 350 207q85 0 153 -27.5t115.5 -76.5t79 -120t46 -155t14.5 -184q0 -273 -106.5 -424t-319.5 -151q-243 0 -332 200h-4q6 -27 6 -176v-477h-318zM461 549q0 -100 20 -172t53.5 -108.5t68.5 -52t75 -15.5q209 0 209 350q0 180 -52.5 261 t-156.5 81q-33 0 -62 -9.5t-58 -33.5t-50 -62t-34 -99t-13 -140z" />
<glyph unicode="&#xff;" horiz-adv-x="1132" d="M-10 1098h315l174 -512l96 -295q54 153 99 303l151 504h318l-471 -1309q-20 -55 -43 -96.5t-47 -71t-55 -49.5t-60 -31.5t-70 -18t-76.5 -8t-87.5 -1.5h-159v251h159q60 0 92.5 20t49.5 69l43 120zM236 1231v233h229v-233h-229zM686 1231v233h236v-233h-236z" />
<glyph unicode="&#x152;" horiz-adv-x="2082" d="M-139 719q0 343 192.5 538t532.5 195q227 0 391 -88v68h973v-252h-645v-332h581v-254h-581v-332h657v-262h-985v74q-168 -94 -393 -94q-176 0 -314.5 55t-227.5 154t-135 233.5t-46 296.5zM193 723q0 -223 102.5 -354t290.5 -131q198 0 294.5 129t96.5 354 q0 224 -100.5 348.5t-288.5 124.5q-194 0 -294.5 -123t-100.5 -348z" />
<glyph unicode="&#x153;" horiz-adv-x="1933" d="M68 551q0 273 150.5 420t404.5 147q235 0 374 -114q132 114 371 114q500 0 504 -532q0 -51 -4 -97h-694v-28q0 -40 5 -76t18.5 -74t35.5 -65t58.5 -44.5t84.5 -17.5q82 0 116.5 35.5t55.5 116.5l303 -19q-36 -162 -150.5 -249.5t-334.5 -87.5q-241 0 -369 116 q-137 -116 -381 -116q-120 0 -218.5 34.5t-173 102.5t-115.5 178.5t-41 255.5zM395 549q0 -161 55 -258.5t168 -97.5q65 0 111.5 27t71.5 77t36 111.5t11 140.5q0 175 -59 260.5t-164 85.5q-230 0 -230 -346zM1174 674h368v4q0 129 -44 188.5t-136 59.5t-137.5 -61.5 t-50.5 -190.5z" />
<glyph unicode="&#x178;" horiz-adv-x="1345" d="M10 1432h342l318 -584l323 584h342l-497 -846v-586h-328v586zM274 1518v233h230v-233h-230zM725 1518v233h236v-233h-236z" />
<glyph unicode="&#x2c6;" horiz-adv-x="974" d="M102 1198v2l269 365h239l262 -365v-2h-178l-200 199h-5l-208 -199h-179z" />
<glyph unicode="&#x2dc;" horiz-adv-x="1015" d="M102 1198v23q0 40 5 75.5t21 74t41 66.5t68.5 46t100.5 18q53 0 120.5 -32.5t126 -64.5t89.5 -32q90 0 90 115v14h149v-14q0 -46 -4.5 -83.5t-19.5 -77.5t-39.5 -67t-67 -44t-100.5 -17q-41 0 -91.5 19.5t-90 43t-82 43t-68.5 19.5q-94 0 -94 -109v-16h-154z" />
<glyph unicode="&#x2000;" horiz-adv-x="974" />
<glyph unicode="&#x2001;" horiz-adv-x="1948" />
<glyph unicode="&#x2002;" horiz-adv-x="974" />
<glyph unicode="&#x2003;" horiz-adv-x="1948" />
<glyph unicode="&#x2004;" horiz-adv-x="649" />
<glyph unicode="&#x2005;" horiz-adv-x="487" />
<glyph unicode="&#x2006;" horiz-adv-x="324" />
<glyph unicode="&#x2007;" horiz-adv-x="324" />
<glyph unicode="&#x2008;" horiz-adv-x="243" />
<glyph unicode="&#x2009;" horiz-adv-x="389" />
<glyph unicode="&#x200a;" horiz-adv-x="108" />
<glyph unicode="&#x2010;" horiz-adv-x="739" d="M102 401v271h535v-271h-535z" />
<glyph unicode="&#x2011;" horiz-adv-x="739" d="M102 401v271h535v-271h-535z" />
<glyph unicode="&#x2012;" horiz-adv-x="739" d="M102 401v271h535v-271h-535z" />
<glyph unicode="&#x2013;" horiz-adv-x="993" d="M0 455v223h993v-223h-993z" />
<glyph unicode="&#x2014;" horiz-adv-x="2078" d="M0 455v223h2079v-223h-2079z" />
<glyph unicode="&#x2018;" horiz-adv-x="589" d="M123 918v212q0 126 33.5 221.5t99.5 186.5h211v-2q-61 -73 -106.5 -164.5t-45.5 -171.5h140v-282h-332z" />
<glyph unicode="&#x2019;" horiz-adv-x="589" d="M123 918v2q61 73 106 164t45 171h-139v283h332v-213q0 -126 -33.5 -220.5t-99.5 -186.5h-211z" />
<glyph unicode="&#x201a;" horiz-adv-x="589" d="M123 -401q61 73 106 164t45 171h-139v283h332v-213q0 -126 -33.5 -220.5t-99.5 -186.5h-211v2z" />
<glyph unicode="&#x201c;" horiz-adv-x="1052" d="M123 918v212q0 126 33.5 221.5t99.5 186.5h211v-2q-61 -73 -106.5 -164.5t-45.5 -171.5h140v-282h-332zM586 918v212q0 126 33.5 221.5t99.5 186.5h211v-2q-61 -73 -106.5 -164.5t-45.5 -171.5h140v-282h-332z" />
<glyph unicode="&#x201d;" horiz-adv-x="1052" d="M123 918v2q61 73 106 164t45 171h-139v283h332v-213q0 -126 -33.5 -220.5t-99.5 -186.5h-211zM586 918v2q61 73 106 164t45 171h-139v283h332v-213q0 -126 -33.5 -220.5t-99.5 -186.5h-211z" />
<glyph unicode="&#x201e;" horiz-adv-x="1050" d="M123 -403q61 73 106 164t45 171h-139v283h332v-213q0 -126 -33.5 -221.5t-99.5 -186.5h-211v3zM584 -403q61 73 106 164t45 171h-139v283h332v-213q0 -126 -33.5 -221.5t-99.5 -186.5h-211v3z" />
<glyph unicode="&#x2022;" horiz-adv-x="808" d="M102 684q0 127 88 215t213 88t214.5 -88t89.5 -215q0 -124 -89.5 -213.5t-214.5 -89.5q-124 0 -212.5 89t-88.5 214z" />
<glyph unicode="&#x2026;" horiz-adv-x="2064" d="M137 0v334h320v-334h-320zM801 0v334h319v-334h-319zM1456 0v334h320v-334h-320z" />
<glyph unicode="&#x202f;" horiz-adv-x="389" />
<glyph unicode="&#x2039;" horiz-adv-x="772" d="M102 545v4l265 405h301v-2l-256 -407l258 -400v-2h-301z" />
<glyph unicode="&#x203a;" horiz-adv-x="772" d="M102 952v2h301l267 -401v-4l-264 -406h-302v2l256 408z" />
<glyph unicode="&#x205f;" horiz-adv-x="487" />
<glyph unicode="&#x20ac;" horiz-adv-x="1155" d="M8 520l39 158h68v29v63h-107l39 158h82q73 524 526 524q196 0 309.5 -103t141.5 -272l-311 -16q-8 71 -46 109t-104 38q-91 0 -135 -72.5t-57 -207.5h297l-27 -158h-279v-49v-43h316l-29 -158h-280q31 -299 206 -299q65 0 105.5 46t48.5 126l307 -16q-65 -397 -465 -397 q-118 0 -211.5 38.5t-157.5 111t-103.5 170t-55.5 220.5h-117z" />
<glyph unicode="&#x2122;" horiz-adv-x="1736" d="M47 1270v153h625v-153h-232v-549h-166v549h-227zM760 721v702h231l168 -446l21 -66q14 39 22 66l170 446h227v-702h-153l2 481l4 72l-25 -74l-184 -479h-119l-190 481l-25 76q6 -47 6 -78v-479h-155z" />
<glyph unicode="&#xe000;" horiz-adv-x="1095" d="M0 0v1096h1096v-1096h-1096z" />
</font>
</defs>
</svg>
